<svg xmlns="http://www.w3.org/2000/svg" viewBox="0 0 64 64" role="img" aria-label="FonteRenda">
  <defs>
    <linearGradient id="g" x1="0%" y1="0%" x2="100%" y2="100%">
      <stop offset="0%" stop-color="#0d7c66" />
      <stop offset="100%" stop-color="#ff7b38" />
    </linearGradient>
  </defs>
  <rect width="64" height="64" rx="18" fill="url(#g)" />
  <path d="M19 18h24v7H27v8h14v7H27v14h-8z" fill="#fff8ee" />
  <path d="M37 46c-4 0-7-3-7-7s3-7 7-7c3 0 5 1 7 3l-4 4c-1-1-2-1-3-1-1 0-2 1-2 2s1 2 2 2c1 0 2 0 3-1l4 4c-2 2-4 3-7 3z" fill="#fff8ee" />
</svg>
